<?xml version="1.0" encoding="utf-8"?>
<svg xmlns="http://www.w3.org/2000/svg" style="margin: auto; background: rgb(241, 242, 243); display: block; shape-rendering: auto;" width="280" height="344" preserveAspectRatio="xMidYMid">
<style type="text/css">
  text {
    text-anchor: middle; font-size: 44px; opacity: 0;
  }
</style>
<g style="transform-origin:140px 172px;transform:scale(1)">
<g transform="translate(140,172)">
  <g transform="translate(0,0)"><g class="path" style="transform: scale(0.91); transform-origin: -114.463px 2.56256px; animation: 1s linear -0.586667s infinite normal forwards running breath-63c6cdf3-1439-4fa6-86f3-008f8002b8c8;"><path d="M32.96-14.80L32.96-14.80L32.96-14.39L32.96-14.39Q32.91-12.59 32.58-10.66L32.58-10.66L32.58-10.66Q32.25-8.72 31.65-6.79L31.65-6.79L31.65-6.79Q31.04-4.86 30.21-2.96L30.21-2.96L30.21-2.96Q29.37-1.07 28.33 0.66L28.33 0.66L28.33 0.66Q27.29 2.38 26.08 3.90L26.08 3.90L26.08 3.90Q24.88 5.41 23.55 6.57L23.55 6.57L20.35 4.73L20.35 4.73Q21.10 3.46 21.71 1.97L21.71 1.97L21.71 1.97Q22.32 0.47 22.82-1.16L22.82-1.16L22.82-1.16Q23.31-2.79 23.67-4.51L23.67-4.51L23.67-4.51Q24.02-6.23 24.26-7.93L24.26-7.93L24.26-7.93Q24.49-9.63 24.61-11.27L24.61-11.27L24.61-11.27Q24.73-12.91 24.73-14.39L24.73-14.39L24.73-14.39Q24.73-15.55 24.72-17.03L24.72-17.03L24.72-17.03Q24.71-18.50 24.55-20.02L24.55-20.02L24.55-20.02Q24.38-21.55 24.02-23.00L24.02-23.00L24.02-23.00Q23.65-24.45 22.93-25.59L22.93-25.59L22.93-25.59Q22.21-26.73 21.09-27.41L21.09-27.41L21.09-27.41Q19.96-28.10 18.28-28.10L18.28-28.10L18.28-28.10Q16.80-28.10 15.74-27.60L15.74-27.60L15.74-27.60Q14.67-27.09 13.93-26.24L13.93-26.24L13.93-26.24Q13.19-25.39 12.75-24.28L12.75-24.28L12.75-24.28Q12.31-23.16 12.06-21.92L12.06-21.92L12.06-21.92Q11.82-20.69 11.74-19.43L11.74-19.43L11.74-19.43Q11.67-18.18 11.67-17.06L11.67-17.06L11.67-11.06L20.93-11.06L20.93-7.52L11.67-7.52L11.67 0L3.14 0L3.14-15.73L3.14-15.73Q3.14-19.10 4.21-22L4.21-22L4.21-22Q5.29-24.90 7.25-27.04L7.25-27.04L7.25-27.04Q9.22-29.18 11.98-30.39L11.98-30.39L11.98-30.39Q14.74-31.60 18.13-31.60L18.13-31.60L18.13-31.60Q20.43-31.60 22.44-30.95L22.44-30.95L22.44-30.95Q24.45-30.29 26.10-29.14L26.10-29.14L26.10-29.14Q27.76-27.99 29.06-26.42L29.06-26.42L29.06-26.42Q30.36-24.84 31.23-22.97L31.23-22.97L31.23-22.97Q32.10-21.10 32.55-19.01L32.55-19.01L32.55-19.01Q33-16.93 32.96-14.80" fill="#2f2926" stroke="none" stroke-width="none" transform="translate(-132.5150146484375,15.077558390299483)" style="fill: rgb(47, 41, 38);"></path></g><g class="path" style="transform: scale(0.91); transform-origin: -82.885px 8.09256px; animation: 1s linear -0.513333s infinite normal forwards running breath-63c6cdf3-1439-4fa6-86f3-008f8002b8c8;"><path d="M62.82-24.81L62.82-2.99L62.82-2.99Q62.82-0.02 61.94 2.60L61.94 2.60L61.94 2.60Q61.06 5.22 59.38 7.19L59.38 7.19L59.38 7.19Q57.71 9.15 55.27 10.30L55.27 10.30L55.27 10.30Q52.83 11.45 49.71 11.45L49.71 11.45L49.71 11.45Q48.00 11.45 46.25 11.06L46.25 11.06L46.25 11.06Q44.49 10.68 42.94 9.87L42.94 9.87L42.94 9.87Q41.38 9.07 40.14 7.83L40.14 7.83L40.14 7.83Q38.91 6.60 38.20 4.92L38.20 4.92L41.34 3.74L41.34 3.74Q41.74 4.79 42.40 5.67L42.40 5.67L42.40 5.67Q43.05 6.55 43.91 7.19L43.91 7.19L43.91 7.19Q44.77 7.82 45.80 8.17L45.80 8.17L45.80 8.17Q46.84 8.53 47.97 8.53L47.97 8.53L47.97 8.53Q50.12 8.53 51.57 7.65L51.57 7.65L51.57 7.65Q53.02 6.77 53.90 5.35L53.90 5.35L53.90 5.35Q54.79 3.93 55.17 2.14L55.17 2.14L55.17 2.14Q55.56 0.34 55.56-1.50L55.56-1.50L55.56-2.96L55.56-2.96Q54.27-1.20 52.45-0.35L52.45-0.35L52.45-0.35Q50.64 0.49 48.47 0.49L48.47 0.49L48.47 0.49Q45.63 0.49 43.40-0.52L43.40-0.52L43.40-0.52Q41.16-1.53 39.62-3.28L39.62-3.28L39.62-3.28Q38.07-5.03 37.25-7.39L37.25-7.39L37.25-7.39Q36.44-9.75 36.44-12.46L36.44-12.46L36.44-12.46Q36.44-15.17 37.25-17.53L37.25-17.53L37.25-17.53Q38.07-19.89 39.62-21.65L39.62-21.65L39.62-21.65Q41.16-23.40 43.40-24.41L43.40-24.41L43.40-24.41Q45.63-25.42 48.47-25.42L48.47-25.42L48.47-25.42Q49.91-25.42 51.21-24.99L51.21-24.99L51.21-24.99Q52.51-24.56 53.59-23.77L53.59-23.77L53.59-23.77Q54.68-22.99 55.50-21.88L55.50-21.88L55.50-21.88Q56.33-20.78 56.80-19.42L56.80-19.42L60.03-24.81L62.82-24.81zM55.52-12.46L55.52-12.46L55.52-12.46Q55.52-13.43 55.42-14.50L55.42-14.50L55.42-14.50Q55.32-15.58 55.09-16.63L55.09-16.63L55.09-16.63Q54.85-17.68 54.43-18.64L54.43-18.64L54.43-18.64Q54.01-19.59 53.36-20.33L53.36-20.33L53.36-20.33Q52.70-21.08 51.78-21.51L51.78-21.51L51.78-21.51Q50.85-21.94 49.63-21.94L49.63-21.94L49.63-21.94Q48.40-21.94 47.50-21.50L47.50-21.50L47.50-21.50Q46.60-21.05 45.96-20.31L45.96-20.31L45.96-20.31Q45.31-19.57 44.89-18.61L44.89-18.61L44.89-18.61Q44.47-17.64 44.24-16.59L44.24-16.59L44.24-16.59Q44-15.53 43.90-14.47L43.90-14.47L43.90-14.47Q43.81-13.41 43.81-12.46L43.81-12.46L43.81-12.46Q43.81-11.52 43.90-10.44L43.90-10.44L43.90-10.44Q44-9.37 44.24-8.31L44.24-8.31L44.24-8.31Q44.47-7.26 44.89-6.29L44.89-6.29L44.89-6.29Q45.31-5.33 45.96-4.59L45.96-4.59L45.96-4.59Q46.60-3.85 47.50-3.41L47.50-3.41L47.50-3.41Q48.40-2.96 49.63-2.96L49.63-2.96L49.63-2.96Q50.75-2.96 51.62-3.43L51.62-3.43L51.62-3.43Q52.49-3.89 53.14-4.66L53.14-4.66L53.14-4.66Q53.80-5.44 54.25-6.42L54.25-6.42L54.25-6.42Q54.70-7.41 54.98-8.46L54.98-8.46L54.98-8.46Q55.26-9.52 55.39-10.56L55.39-10.56L55.39-10.56Q55.52-11.60 55.52-12.46" fill="#2f2926" stroke="none" stroke-width="none" transform="translate(-132.5150146484375,15.077558390299483)" style="fill: rgb(96, 52, 23);"></path></g><g class="path" style="transform: scale(0.91); transform-origin: -53.085px 2.36756px; animation: 1s linear -0.44s infinite normal forwards running breath-63c6cdf3-1439-4fa6-86f3-008f8002b8c8;"><path d="M89.98-22.62L89.98-22.62L85.89-15.86L85.89-15.86Q85.64-16.71 85.23-17.79L85.23-17.79L85.23-17.79Q84.82-18.86 84.22-19.80L84.22-19.80L84.22-19.80Q83.62-20.73 82.78-21.37L82.78-21.37L82.78-21.37Q81.94-22 80.85-22L80.85-22L80.85-22Q79.84-22 79.09-21.48L79.09-21.48L79.09-21.48Q78.35-20.97 77.84-20.14L77.84-20.14L77.84-20.14Q77.32-19.31 76.99-18.27L76.99-18.27L76.99-18.27Q76.66-17.23 76.47-16.17L76.47-16.17L76.47-16.17Q76.29-15.10 76.23-14.13L76.23-14.13L76.23-14.13Q76.16-13.15 76.16-12.44L76.16-12.44L76.16 0L68.88 0L68.88-24.81L71.67-24.81L74.62-19.04L74.62-19.04Q75.22-20.43 75.99-21.60L75.99-21.60L75.99-21.60Q76.76-22.77 77.77-23.62L77.77-23.62L77.77-23.62Q78.78-24.47 80.06-24.94L80.06-24.94L80.06-24.94Q81.34-25.42 82.95-25.42L82.95-25.42L82.95-25.42Q83.79-25.42 84.82-25.28L84.82-25.28L84.82-25.28Q85.85-25.14 86.84-24.80L86.84-24.80L86.84-24.80Q87.83-24.47 88.67-23.93L88.67-23.93L88.67-23.93Q89.50-23.40 89.98-22.62" fill="#2f2926" stroke="none" stroke-width="none" transform="translate(-132.5150146484375,15.077558390299483)" style="fill: rgb(116, 65, 31);"></path></g><g class="path" style="transform: scale(0.91); transform-origin: -27.79px 2.61256px; animation: 1s linear -0.366667s infinite normal forwards running breath-63c6cdf3-1439-4fa6-86f3-008f8002b8c8;"><path d="M118.57-12.46L118.57-12.46L118.57-12.46Q118.57-10.53 118.06-8.83L118.06-8.83L118.06-8.83Q117.54-7.13 116.63-5.69L116.63-5.69L116.63-5.69Q115.71-4.25 114.43-3.10L114.43-3.10L114.43-3.10Q113.14-1.96 111.60-1.16L111.60-1.16L111.60-1.16Q110.06-0.37 108.31 0.06L108.31 0.06L108.31 0.06Q106.56 0.49 104.71 0.49L104.71 0.49L104.71 0.49Q102.87 0.49 101.13 0.06L101.13 0.06L101.13 0.06Q99.39-0.37 97.85-1.16L97.85-1.16L97.85-1.16Q96.31-1.96 95.03-3.10L95.03-3.10L95.03-3.10Q93.74-4.25 92.82-5.69L92.82-5.69L92.82-5.69Q91.91-7.13 91.39-8.84L91.39-8.84L91.39-8.84Q90.88-10.55 90.88-12.46L90.88-12.46L90.88-12.46Q90.88-14.37 91.39-16.08L91.39-16.08L91.39-16.08Q91.91-17.79 92.82-19.23L92.82-19.23L92.82-19.23Q93.74-20.67 95.03-21.82L95.03-21.82L95.03-21.82Q96.31-22.97 97.85-23.76L97.85-23.76L97.85-23.76Q99.39-24.56 101.13-24.99L101.13-24.99L101.13-24.99Q102.87-25.42 104.71-25.42L104.71-25.42L104.71-25.42Q106.56-25.42 108.31-24.99L108.31-24.99L108.31-24.99Q110.06-24.56 111.60-23.76L111.60-23.76L111.60-23.76Q113.14-22.97 114.43-21.82L114.43-21.82L114.43-21.82Q115.71-20.67 116.63-19.23L116.63-19.23L116.63-19.23Q117.54-17.79 118.06-16.08L118.06-16.08L118.06-16.08Q118.57-14.37 118.57-12.46zM111.18-12.46L111.18-12.46L111.18-12.46Q111.18-13.49 111.06-14.64L111.06-14.64L111.06-14.64Q110.95-15.79 110.67-16.90L110.67-16.90L110.67-16.90Q110.39-18.00 109.90-19.02L109.90-19.02L109.90-19.02Q109.42-20.04 108.71-20.81L108.71-20.81L108.71-20.81Q108.00-21.57 107.01-22.03L107.01-22.03L107.01-22.03Q106.03-22.49 104.71-22.49L104.71-22.49L104.71-22.49Q103.47-22.49 102.50-22.02L102.50-22.02L102.50-22.02Q101.54-21.55 100.82-20.76L100.82-20.76L100.82-20.76Q100.10-19.98 99.61-18.95L99.61-18.95L99.61-18.95Q99.13-17.92 98.83-16.81L98.83-16.81L98.83-16.81Q98.53-15.71 98.40-14.58L98.40-14.58L98.40-14.58Q98.27-13.45 98.27-12.46L98.27-12.46L98.27-12.46Q98.27-11.47 98.40-10.34L98.40-10.34L98.40-10.34Q98.53-9.22 98.83-8.10L98.83-8.10L98.83-8.10Q99.13-6.98 99.61-5.96L99.61-5.96L99.61-5.96Q100.10-4.94 100.82-4.16L100.82-4.16L100.82-4.16Q101.54-3.37 102.50-2.90L102.50-2.90L102.50-2.90Q103.47-2.43 104.71-2.43L104.71-2.43L104.71-2.43Q106.00-2.43 106.99-2.89L106.99-2.89L106.99-2.89Q107.98-3.35 108.70-4.13L108.70-4.13L108.70-4.13Q109.42-4.90 109.89-5.91L109.89-5.91L109.89-5.91Q110.37-6.92 110.66-8.04L110.66-8.04L110.66-8.04Q110.95-9.15 111.06-10.29L111.06-10.29L111.06-10.29Q111.18-11.43 111.18-12.46" fill="#2f2926" stroke="none" stroke-width="none" transform="translate(-132.5150146484375,15.077558390299483)" style="fill: rgb(142, 81, 28);"></path></g><g class="path" style="transform: scale(0.91); transform-origin: 17.705px -0.392442px; animation: 1s linear -0.293333s infinite normal forwards running breath-63c6cdf3-1439-4fa6-86f3-008f8002b8c8;"><path d="M140.04-21.23L140.04 0L136.08 0L136.08-30.94L141.63-30.94L160.42-9.69L160.42-30.94L164.36-30.94L164.36 0L158.81 0L140.04-21.23" fill="#2f2926" stroke="none" stroke-width="none" transform="translate(-132.5150146484375,15.077558390299483)" style="fill: rgb(188, 133, 64);"></path></g><g class="path" style="transform: scale(0.91); transform-origin: 49.11px 2.61256px; animation: 1s linear -0.22s infinite normal forwards running breath-63c6cdf3-1439-4fa6-86f3-008f8002b8c8;"><path d="M176.39-11.77L176.39-11.77L176.39-11.77Q177.72-11.47 179.05-11.30L179.05-11.30L179.05-11.30Q180.38-11.13 181.74-11.13L181.74-11.13L181.74-11.13Q183.15-11.13 184.37-11.40L184.37-11.40L184.37-11.40Q185.58-11.67 186.47-12.30L186.47-12.30L186.47-12.30Q187.37-12.93 187.88-13.99L187.88-13.99L187.88-13.99Q188.40-15.04 188.40-16.61L188.40-16.61L188.40-16.61Q188.40-17.88 188.05-18.93L188.05-18.93L188.05-18.93Q187.71-19.98 187.03-20.73L187.03-20.73L187.03-20.73Q186.36-21.48 185.37-21.90L185.37-21.90L185.37-21.90Q184.38-22.32 183.07-22.32L183.07-22.32L183.07-22.32Q181.84-22.32 180.87-21.87L180.87-21.87L180.87-21.87Q179.89-21.42 179.15-20.66L179.15-20.66L179.15-20.66Q178.41-19.89 177.88-18.88L177.88-18.88L177.88-18.88Q177.35-17.88 177.01-16.78L177.01-16.78L177.01-16.78Q176.67-15.68 176.52-14.57L176.52-14.57L176.52-14.57Q176.37-13.45 176.37-12.46L176.37-12.46L176.37-12.46Q176.37-12.29 176.37-12.12L176.37-12.12L176.37-12.12Q176.37-11.95 176.39-11.77zM194.28-16.67L194.28-16.67L194.28-16.67Q194.28-15.15 193.79-13.95L193.79-13.95L193.79-13.95Q193.29-12.76 192.45-11.86L192.45-11.86L192.45-11.86Q191.60-10.96 190.48-10.33L190.48-10.33L190.48-10.33Q189.36-9.71 188.10-9.31L188.10-9.31L188.10-9.31Q186.83-8.92 185.49-8.74L185.49-8.74L185.49-8.74Q184.14-8.57 182.88-8.57L182.88-8.57L182.88-8.57Q181.26-8.57 179.70-8.80L179.70-8.80L179.70-8.80Q178.13-9.02 176.60-9.52L176.60-9.52L176.60-9.52Q176.84-8.10 177.35-6.82L177.35-6.82L177.35-6.82Q177.87-5.54 178.73-4.59L178.73-4.59L178.73-4.59Q179.59-3.63 180.84-3.07L180.84-3.07L180.84-3.07Q182.10-2.51 183.82-2.51L183.82-2.51L183.82-2.51Q184.96-2.51 185.99-2.86L185.99-2.86L185.99-2.86Q187.02-3.20 187.88-3.82L187.88-3.82L187.88-3.82Q188.74-4.45 189.40-5.31L189.40-5.31L189.40-5.31Q190.05-6.17 190.46-7.22L190.46-7.22L193.60-6.06L193.60-6.06Q192.89-4.36 191.65-3.13L191.65-3.13L191.65-3.13Q190.42-1.89 188.86-1.08L188.86-1.08L188.86-1.08Q187.30-0.28 185.55 0.11L185.55 0.11L185.55 0.11Q183.80 0.49 182.08 0.49L182.08 0.49L182.08 0.49Q179.24 0.49 176.84-0.46L176.84-0.46L176.84-0.46Q174.43-1.42 172.69-3.14L172.69-3.14L172.69-3.14Q170.95-4.86 169.96-7.24L169.96-7.24L169.96-7.24Q168.97-9.63 168.97-12.46L168.97-12.46L168.97-12.46Q168.97-15.30 169.96-17.68L169.96-17.68L169.96-17.68Q170.95-20.07 172.69-21.79L172.69-21.79L172.69-21.79Q174.43-23.50 176.84-24.46L176.84-24.46L176.84-24.46Q179.24-25.42 182.08-25.42L182.08-25.42L182.08-25.42Q183.46-25.42 184.89-25.22L184.89-25.22L184.89-25.22Q186.33-25.03 187.69-24.61L187.69-24.61L187.69-24.61Q189.04-24.19 190.24-23.53L190.24-23.53L190.24-23.53Q191.45-22.86 192.34-21.88L192.34-21.88L192.34-21.88Q193.23-20.90 193.76-19.62L193.76-19.62L193.76-19.62Q194.28-18.33 194.28-16.67" fill="#2f2926" stroke="none" stroke-width="none" transform="translate(-132.5150146484375,15.077558390299483)" style="fill: rgb(213, 145, 46);"></path></g><g class="path" style="transform: scale(0.91); transform-origin: 79.495px 8.09256px; animation: 1s linear -0.146667s infinite normal forwards running breath-63c6cdf3-1439-4fa6-86f3-008f8002b8c8;"><path d="M225.20-12.46L225.20-12.46L225.20-12.46Q225.20-9.75 224.38-7.39L224.38-7.39L224.38-7.39Q223.57-5.03 222.02-3.28L222.02-3.28L222.02-3.28Q220.47-1.53 218.24-0.52L218.24-0.52L218.24-0.52Q216.00 0.49 213.17 0.49L213.17 0.49L213.17 0.49Q211.00 0.49 209.18-0.35L209.18-0.35L209.18-0.35Q207.37-1.20 206.08-2.96L206.08-2.96L206.08 11.45L198.82 11.45L198.82-24.81L201.61-24.81L204.83-19.42L204.83-19.42Q205.30-20.78 206.13-21.88L206.13-21.88L206.13-21.88Q206.96-22.99 208.04-23.77L208.04-23.77L208.04-23.77Q209.13-24.56 210.43-24.99L210.43-24.99L210.43-24.99Q211.73-25.42 213.17-25.42L213.17-25.42L213.17-25.42Q216.00-25.42 218.24-24.41L218.24-24.41L218.24-24.41Q220.47-23.40 222.02-21.65L222.02-21.65L222.02-21.65Q223.57-19.89 224.38-17.53L224.38-17.53L224.38-17.53Q225.20-15.17 225.20-12.46zM217.83-12.46L217.83-12.46L217.83-12.46Q217.83-13.41 217.73-14.47L217.73-14.47L217.73-14.47Q217.64-15.53 217.40-16.59L217.40-16.59L217.40-16.59Q217.16-17.64 216.75-18.61L216.75-18.61L216.75-18.61Q216.33-19.57 215.68-20.31L215.68-20.31L215.68-20.31Q215.04-21.05 214.12-21.50L214.12-21.50L214.12-21.50Q213.21-21.94 212.01-21.94L212.01-21.94L212.01-21.94Q210.76-21.94 209.85-21.51L209.85-21.51L209.85-21.51Q208.94-21.08 208.28-20.33L208.28-20.33L208.28-20.33Q207.63-19.59 207.21-18.64L207.21-18.64L207.21-18.64Q206.79-17.68 206.55-16.63L206.55-16.63L206.55-16.63Q206.31-15.58 206.22-14.50L206.22-14.50L206.22-14.50Q206.12-13.43 206.12-12.46L206.12-12.46L206.12-12.46Q206.12-11.60 206.25-10.56L206.25-10.56L206.25-10.56Q206.38-9.52 206.66-8.46L206.66-8.46L206.66-8.46Q206.94-7.41 207.39-6.42L207.39-6.42L207.39-6.42Q207.84-5.44 208.50-4.66L208.50-4.66L208.50-4.66Q209.15-3.89 210.02-3.43L210.02-3.43L210.02-3.43Q210.89-2.96 212.01-2.96L212.01-2.96L212.01-2.96Q213.23-2.96 214.13-3.41L214.13-3.41L214.13-3.41Q215.04-3.85 215.68-4.59L215.68-4.59L215.68-4.59Q216.33-5.33 216.75-6.29L216.75-6.29L216.75-6.29Q217.16-7.26 217.40-8.31L217.40-8.31L217.40-8.31Q217.64-9.37 217.73-10.44L217.73-10.44L217.73-10.44Q217.83-11.52 217.83-12.46" fill="#2f2926" stroke="none" stroke-width="none" transform="translate(-132.5150146484375,15.077558390299483)" style="fill: rgb(227, 171, 69);"></path></g><g class="path" style="transform: scale(0.91); transform-origin: 109.14px 2.61256px; animation: 1s linear -0.0733333s infinite normal forwards running breath-63c6cdf3-1439-4fa6-86f3-008f8002b8c8;"><path d="M254.85-24.81L254.85 0L247.59 0L247.59-2.96L247.59-2.96Q246.30-1.20 244.48-0.35L244.48-0.35L244.48-0.35Q242.67 0.49 240.50 0.49L240.50 0.49L240.50 0.49Q237.66 0.49 235.43-0.52L235.43-0.52L235.43-0.52Q233.19-1.53 231.64-3.28L231.64-3.28L231.64-3.28Q230.10-5.03 229.28-7.39L229.28-7.39L229.28-7.39Q228.46-9.75 228.46-12.46L228.46-12.46L228.46-12.46Q228.46-15.17 229.28-17.53L229.28-17.53L229.28-17.53Q230.10-19.89 231.64-21.65L231.64-21.65L231.64-21.65Q233.19-23.40 235.43-24.41L235.43-24.41L235.43-24.41Q237.66-25.42 240.50-25.42L240.50-25.42L240.50-25.42Q241.94-25.42 243.24-24.99L243.24-24.99L243.24-24.99Q244.54-24.56 245.62-23.77L245.62-23.77L245.62-23.77Q246.71-22.99 247.53-21.88L247.53-21.88L247.53-21.88Q248.36-20.78 248.83-19.42L248.83-19.42L252.05-24.81L254.85-24.81zM247.54-12.46L247.54-12.46L247.54-12.46Q247.54-13.43 247.45-14.50L247.45-14.50L247.45-14.50Q247.35-15.58 247.11-16.63L247.11-16.63L247.11-16.63Q246.88-17.68 246.46-18.64L246.46-18.64L246.46-18.64Q246.04-19.59 245.38-20.33L245.38-20.33L245.38-20.33Q244.73-21.08 243.80-21.51L243.80-21.51L243.80-21.51Q242.88-21.94 241.66-21.94L241.66-21.94L241.66-21.94Q240.43-21.94 239.53-21.50L239.53-21.50L239.53-21.50Q238.63-21.05 237.98-20.31L237.98-20.31L237.98-20.31Q237.34-19.57 236.92-18.61L236.92-18.61L236.92-18.61Q236.50-17.64 236.26-16.59L236.26-16.59L236.26-16.59Q236.03-15.53 235.93-14.47L235.93-14.47L235.93-14.47Q235.83-13.41 235.83-12.46L235.83-12.46L235.83-12.46Q235.83-11.52 235.93-10.44L235.93-10.44L235.93-10.44Q236.03-9.37 236.26-8.31L236.26-8.31L236.26-8.31Q236.50-7.26 236.92-6.29L236.92-6.29L236.92-6.29Q237.34-5.33 237.98-4.59L237.98-4.59L237.98-4.59Q238.63-3.85 239.53-3.41L239.53-3.41L239.53-3.41Q240.43-2.96 241.66-2.96L241.66-2.96L241.66-2.96Q242.77-2.96 243.64-3.43L243.64-3.43L243.64-3.43Q244.51-3.89 245.17-4.66L245.17-4.66L245.17-4.66Q245.82-5.44 246.28-6.42L246.28-6.42L246.28-6.42Q246.73-7.41 247.01-8.46L247.01-8.46L247.01-8.46Q247.29-9.52 247.41-10.56L247.41-10.56L247.41-10.56Q247.54-11.60 247.54-12.46" fill="#2f2926" stroke="none" stroke-width="none" transform="translate(-132.5150146484375,15.077558390299483)" style="fill: rgb(47, 41, 38);"></path></g><g class="path" style="transform: scale(0.91); transform-origin: 132.025px -3.04244px; animation: 1s linear 0s infinite normal forwards running breath-63c6cdf3-1439-4fa6-86f3-008f8002b8c8;"><path d="M268.17-28.70L268.17 0L260.91 0L260.91-36.24L263.70-36.24L268.17-28.70" fill="#2f2926" stroke="none" stroke-width="none" transform="translate(-132.5150146484375,15.077558390299483)" style="fill: rgb(96, 52, 23);"></path></g></g>
</g>
</g>
<style id="breath-63c6cdf3-1439-4fa6-86f3-008f8002b8c8" data-anikit="">@keyframes breath-63c6cdf3-1439-4fa6-86f3-008f8002b8c8
{
  0% {
    animation-timing-function: cubic-bezier(0.9647,0.2413,-0.0705,0.7911);
    transform: scale(0.9099999999999999);
  }
  51% {
    animation-timing-function: cubic-bezier(0.9226,0.2631,-0.0308,0.7628);
    transform: scale(1.02994);
  }
  100% {
    transform: scale(0.9099999999999999);
  }
}</style></svg>